canolaSource.ufo
<glyph name="exclam" format="1">
  <advance width="290"/>
  <unicode hex="0021"/>
  <outline>
    <contour>
      <point x="165" y="18" type="line" name=""/>
      <point x="165" y="30"/>
      <point x="157" y="37"/>
      <point x="145" y="37" type="curve" name="dot"/>
      <point x="134" y="37"/>
      <point x="127" y="29"/>
      <point x="127" y="18" type="curve" name=""/>
      <point x="165" y="18" type="line" name=""/>
      <point x="165" y="6"/>
      <point x="157" y="0"/>
      <point x="145" y="0" type="curve" name="dot"/>
      <point x="134" y="0"/>
      <point x="127" y="7"/>
      <point x="127" y="18" type="curve" name=""/>
    </contour>
    <contour>
      <point x="156" y="229" type="line"/>
      <point x="156" y="722" type="line" name="stem"/>
      <point x="134" y="722" type="line" name="stem"/>
      <point x="134" y="229" type="line"/>
    </contour>
  </outline>
</glyph>
<glyph name="asterisk" format="1">
  <advance width="338"/>
  <unicode hex="002A"/>
  <outline>
    <contour>
      <point x="165" y="670" type="line"/>
      <point x="167" y="518" type="line"/>
      <point x="185" y="518" type="line"/>
      <point x="187" y="670" type="line"/>
    </contour>
    <contour>
      <point x="314" y="583" type="line"/>
      <point x="173" y="526" type="line"/>
      <point x="179" y="510" type="line"/>
      <point x="322" y="562" type="line"/>
    </contour>
    <contour>
      <point x="288" y="415" type="line"/>
      <point x="183" y="524" type="line"/>
      <point x="169" y="512" type="line"/>
      <point x="272" y="400" type="line"/>
    </contour>
    <contour>
      <point x="30" y="562" type="line"/>
      <point x="173" y="510" type="line"/>
      <point x="179" y="526" type="line"/>
      <point x="38" y="583" type="line"/>
    </contour>
    <contour>
      <point x="80" y="400" type="line"/>
      <point x="183" y="512" type="line"/>
      <point x="169" y="524" type="line"/>
      <point x="64" y="415" type="line"/>
    </contour>
  </outline>
</glyph>
<glyph name="comma" format="1">
  <advance width="363"/>
  <unicode hex="002C"/>
  <outline>
    <contour>
      <point x="152" y="-99" type="line"/>
      <point x="262" y="82" type="line" name="stem"/>
      <point x="234" y="82" type="line" name="stem"/>
      <point x="130" y="-99" type="line"/>
    </contour>
  </outline>
</glyph>
<glyph name="hyphen" format="1">
  <advance width="462"/>
  <unicode hex="002D"/>
  <outline>
    <contour>
      <point x="91" y="261" type="line"/>
      <point x="382" y="261" type="line"/>
      <point x="382" y="283" type="line"/>
      <point x="91" y="283" type="line"/>
    </contour>
  </outline>
</glyph>
<glyph name="period" format="1">
  <advance width="290"/>
  <unicode hex="002E"/>
  <outline>
    <contour>
      <point x="165" y="18" type="line" name=""/>
      <point x="165" y="30"/>
      <point x="157" y="37"/>
      <point x="145" y="37" type="curve" name="dot"/>
      <point x="134" y="37"/>
      <point x="127" y="29"/>
      <point x="127" y="18" type="curve" name=""/>
      <point x="165" y="18" type="line" name=""/>
      <point x="165" y="7"/>
      <point x="157" y="0"/>
      <point x="145" y="0" type="curve" name="dot"/>
      <point x="134" y="0"/>
      <point x="127" y="7"/>
      <point x="127" y="18" type="curve" name=""/>
    </contour>
  </outline>
</glyph>
<glyph name="zero" format="1">
  <advance width="750"/>
  <unicode hex="0030"/>
  <outline>
    <contour>
      <point x="135" y="360" type="line"/>
      <point x="135" y="559"/>
      <point x="212" y="702"/>
      <point x="394" y="702" type="curve" smooth="yes"/>
      <point x="574" y="702"/>
      <point x="651" y="560"/>
      <point x="651" y="363" type="curve"/>
      <point x="651" y="165"/>
      <point x="577" y="20"/>
      <point x="397" y="20" type="curve" smooth="yes"/>
      <point x="215" y="20"/>
      <point x="135" y="162"/>
      <point x="135" y="360" type="curve"/>
      <point x="114" y="360" type="line"/>
      <point x="114" y="150"/>
      <point x="202" y="0"/>
      <point x="396" y="0" type="curve" smooth="yes" name="over_bottom"/>
      <point x="589" y="0"/>
      <point x="672" y="152"/>
      <point x="672" y="363" type="curve" smooth="yes"/>
      <point x="672" y="572"/>
      <point x="588" y="722"/>
      <point x="396" y="722" type="curve" smooth="yes" name="over_top"/>
      <point x="201" y="722"/>
      <point x="114" y="571"/>
      <point x="114" y="360" type="curve"/>
    </contour>
  </outline>
</glyph>
<glyph name="four" format="1">
  <advance width="594"/>
  <unicode hex="0034"/>
  <outline>
    <contour>
      <point x="375" y="20" type="line"/>
      <point x="272" y="20" type="line" name="bll"/>
      <point x="272" y="0" type="line" name="bll"/>
      <point x="375" y="0" type="line"/>
    </contour>
    <contour>
      <point x="375" y="0" type="line"/>
      <point x="478" y="0" type="line" name="brr"/>
      <point x="478" y="20" type="line" name="brr"/>
      <point x="375" y="20" type="line"/>
    </contour>
    <contour>
      <point x="48" y="265" type="line"/>
      <point x="387" y="713" type="line"/>
      <point x="365" y="722" type="line"/>
      <point x="37" y="287" type="line"/>
    </contour>
    <contour>
      <point x="573" y="287" type="line"/>
      <point x="573" y="287"/>
      <point x="37" y="287"/>
      <point x="37" y="287" type="curve"/>
      <point x="48" y="265" type="line"/>
      <point x="48" y="265"/>
      <point x="573" y="265"/>
      <point x="573" y="265" type="curve"/>
    </contour>
    <contour>
      <point x="365" y="722" type="line"/>
      <point x="365" y="722"/>
      <point x="365" y="0"/>
      <point x="365" y="0" type="curve"/>
      <point x="387" y="0" type="line" name="stem"/>
      <point x="387" y="0"/>
      <point x="387" y="713"/>
      <point x="387" y="713" type="curve" name="stem"/>
    </contour>
  </outline>
</glyph>
<glyph name="seven" format="1">
  <advance width="581"/>
  <unicode hex="0037"/>
  <outline>
    <contour>
      <point x="63" y="702" type="line"/>
      <point x="537" y="702" type="line"/>
      <point x="525" y="722" type="line"/>
      <point x="63" y="722" type="line"/>
    </contour>
    <contour>
      <point x="525" y="722" type="line"/>
      <point x="104" y="0" type="line"/>
      <point x="129" y="0" type="line"/>
      <point x="537" y="702" type="line"/>
    </contour>
  </outline>
</glyph>
<glyph name="less" format="1">
  <advance width="691"/>
  <unicode hex="003C"/>
  <outline>
    <contour>
      <point x="647" y="581" type="line"/>
      <point x="38" y="311" type="line"/>
      <point x="38" y="289" type="line"/>
      <point x="647" y="559" type="line"/>
    </contour>
    <contour>
      <point x="657" y="47" type="line"/>
      <point x="38" y="311" type="line"/>
      <point x="38" y="289" type="line"/>
      <point x="657" y="25" type="line"/>
    </contour>
  </outline>
</glyph>
<glyph name="equal" format="1">
  <advance width="727"/>
  <unicode hex="003D"/>
  <outline>
    <contour>
      <point x="38" y="207" type="line"/>
      <point x="667" y="207" type="line"/>
      <point x="667" y="228" type="line"/>
      <point x="38" y="228" type="line"/>
    </contour>
    <contour>
      <point x="38" y="429" type="line"/>
      <point x="667" y="429" type="line"/>
      <point x="667" y="450" type="line"/>
      <point x="38" y="450" type="line"/>
    </contour>
  </outline>
</glyph>
<glyph name="greater" format="1">
  <advance width="691"/>
  <unicode hex="003E"/>
  <outline>
    <contour>
      <point x="47" y="25" type="line"/>
      <point x="656" y="295" type="line"/>
      <point x="656" y="317" type="line"/>
      <point x="47" y="47" type="line"/>
    </contour>
    <contour>
      <point x="37" y="559" type="line"/>
      <point x="656" y="295" type="line"/>
      <point x="656" y="317" type="line"/>
      <point x="37" y="581" type="line"/>
    </contour>
  </outline>
</glyph>
<glyph name="F" format="1">
  <advance width="581"/>
  <unicode hex="0046"/>
  <outline>
    <contour>
      <point x="131" y="0" type="line"/>
      <point x="234" y="0" type="line" name="blr"/>
      <point x="234" y="20" type="line" name="blr"/>
      <point x="131" y="20" type="line"/>
    </contour>
    <contour>
      <point x="457" y="374" type="line"/>
      <point x="457" y="457" type="line" name="crt"/>
      <point x="437" y="457" type="line" name="crt"/>
      <point x="437" y="374" type="line"/>
    </contour>
    <contour>
      <point x="131" y="722" type="line"/>
      <point x="28" y="722" type="line" name="tll"/>
      <point x="28" y="702" type="line" name="tll"/>
      <point x="131" y="702" type="line"/>
    </contour>
    <contour>
      <point x="437" y="374" type="line"/>
      <point x="437" y="291" type="line" name="crb"/>
      <point x="457" y="291" type="line" name="crb"/>
      <point x="457" y="374" type="line"/>
    </contour>
    <contour>
      <point x="131" y="20" type="line"/>
      <point x="28" y="20" type="line" name="bll"/>
      <point x="28" y="0" type="line" name="bll"/>
      <point x="131" y="0" type="line"/>
    </contour>
    <contour>
      <point x="510" y="712" type="line"/>
      <point x="510" y="629" type="line" name="trb"/>
      <point x="530" y="629" type="line" name="trb"/>
      <point x="530" y="712" type="line"/>
    </contour>
    <contour>
      <point x="135" y="364" type="line" name="armc"/>
      <point x="457" y="364" type="line" name="armc"/>
      <point x="457" y="384" type="line" name="armc"/>
      <point x="135" y="384" type="line" name="armc"/>
    </contour>
    <contour>
      <point x="142" y="0" type="line" name="stem"/>
      <point x="142" y="0"/>
      <point x="142" y="722"/>
      <point x="142" y="722" type="curve" name="stem"/>
      <point x="120" y="722" type="line" name="stem"/>
      <point x="120" y="0" type="line" name="stem"/>
    </contour>
    <contour>
      <point x="120" y="702" type="line" name="armt"/>
      <point x="530" y="702" type="line" name="armt"/>
      <point x="530" y="722" type="line" name="armt"/>
      <point x="120" y="722" type="line" name="armt"/>
    </contour>
  </outline>
</glyph>
<glyph name="I" format="1">
  <advance width="290"/>
  <unicode hex="0049"/>
  <outline>
    <contour>
      <point x="142" y="722" type="line"/>
      <point x="39" y="722" type="line" name="tll"/>
      <point x="39" y="702" type="line" name="tll"/>
      <point x="142" y="702" type="line"/>
    </contour>
    <contour>
      <point x="142" y="702" type="line"/>
      <point x="245" y="702" type="line" name="trr"/>
      <point x="245" y="722" type="line" name="trr"/>
      <point x="142" y="722" type="line"/>
    </contour>
    <contour>
      <point x="142" y="0" type="line"/>
      <point x="245" y="0" type="line" name="brr"/>
      <point x="245" y="20" type="line" name="brr"/>
      <point x="142" y="20" type="line"/>
    </contour>
    <contour>
      <point x="142" y="20" type="line"/>
      <point x="39" y="20" type="line" name="bll"/>
      <point x="39" y="0" type="line" name="bll"/>
      <point x="142" y="0" type="line"/>
    </contour>
    <contour>
      <point x="152" y="0" type="line" name="stem"/>
      <point x="152" y="722" type="line" name="stem"/>
      <point x="130" y="722" type="line" name="stem"/>
      <point x="130" y="0" type="line" name="stem"/>
    </contour>
  </outline>
</glyph>
<glyph name="V" format="1">
  <advance width="762"/>
  <unicode hex="0056"/>
  <outline>
    <contour>
      <point x="652" y="722" type="line"/>
      <point x="549" y="722" type="line" name="trl"/>
      <point x="549" y="702" type="line" name="trl"/>
      <point x="652" y="702" type="line"/>
    </contour>
    <contour>
      <point x="110" y="722" type="line"/>
      <point x="7" y="722" type="line" name="tll"/>
      <point x="7" y="702" type="line" name="tll"/>
      <point x="110" y="702" type="line"/>
    </contour>
    <contour>
      <point x="652" y="702" type="line"/>
      <point x="755" y="702" type="line" name="trr"/>
      <point x="755" y="722" type="line" name="trr"/>
      <point x="652" y="722" type="line"/>
    </contour>
    <contour>
      <point x="110" y="702" type="line"/>
      <point x="213" y="702" type="line" name="tlr"/>
      <point x="213" y="722" type="line" name="tlr"/>
      <point x="110" y="722" type="line"/>
    </contour>
    <contour>
      <point x="652" y="722" type="line" name="stem2"/>
      <point x="374" y="0" type="line" name="stem2"/>
      <point x="399" y="0" type="line" name="stem2"/>
      <point x="676" y="722" type="line" name="stem2"/>
    </contour>
    <contour>
      <point x="86" y="722" type="line" name="stem"/>
      <point x="368" y="0" type="line" name="stem"/>
      <point x="393" y="0" type="line" name="stem"/>
      <point x="111" y="722" type="line" name="stem"/>
    </contour>
  </outline>
</glyph>
<glyph name="bracketleft" format="1">
  <advance width="254"/>
  <unicode hex="005B"/>
  <outline>
    <contour>
      <point x="199" y="771" type="line"/>
      <point x="46" y="771" type="line"/>
      <point x="42" y="771" type="line"/>
      <point x="42" y="766" type="line"/>
      <point x="42" y="-121" type="line"/>
      <point x="42" y="-124" type="line"/>
      <point x="45" y="-124" type="line"/>
      <point x="199" y="-124" type="line"/>
      <point x="199" y="-102" type="line"/>
      <point x="45" y="-102" type="line"/>
      <point x="54" y="-111" type="line"/>
      <point x="64" y="-121" type="line"/>
      <point x="64" y="766" type="line"/>
      <point x="55" y="757" type="line"/>
      <point x="46" y="749" type="line"/>
      <point x="199" y="749" type="line"/>
    </contour>
  </outline>
</glyph>
<glyph name="backslash" format="1">
  <advance width="526"/>
  <unicode hex="005C"/>
  <outline>
    <contour>
      <point x="472" y="-68" type="line"/>
      <point x="80" y="844" type="line"/>
      <point x="57" y="844" type="line"/>
      <point x="449" y="-68" type="line"/>
    </contour>
  </outline>
</glyph>
<glyph name="underscore" format="1">
  <advance width="857"/>
  <unicode hex="005F"/>
  <outline>
    <contour>
      <point x="85" y="-210" type="line"/>
      <point x="767" y="-210" type="line"/>
      <point x="767" y="-190" type="line"/>
      <point x="85" y="-190" type="line"/>
    </contour>
  </outline>
</glyph>
<glyph name="grave" format="1">
  <advance width="400"/>
  <unicode hex="0060"/>
  <outline>
    <contour>
      <point x="291" y="591" type="line" name="stem"/>
      <point x="126" y="757" type="line"/>
      <point x="96" y="757" type="line"/>
      <point x="261" y="591" type="line" name="stem"/>
    </contour>
  </outline>
</glyph>
<glyph name="c" format="1">
  <advance width="545"/>
  <unicode hex="0063"/>
  <outline>
    <contour>
      <point x="459" y="473" type="line"/>
      <point x="459" y="390" type="line" name="trb"/>
      <point x="479" y="390" type="line" name="trb"/>
      <point x="479" y="473" type="line"/>
    </contour>
    <contour>
      <point x="479" y="473" type="line"/>
      <point x="435" y="509"/>
      <point x="377" y="533"/>
      <point x="318" y="533" type="curve" smooth="yes" name="bow"/>
      <point x="164" y="533"/>
      <point x="83" y="431"/>
      <point x="83" y="267" type="curve" smooth="yes"/>
      <point x="83" y="103"/>
      <point x="162" y="0"/>
      <point x="316" y="0" type="curve" smooth="yes"/>
      <point x="383" y="0"/>
      <point x="448" y="30"/>
      <point x="490" y="82" type="curve"/>
      <point x="475" y="97" type="line"/>
      <point x="436" y="49"/>
      <point x="379" y="20"/>
      <point x="317" y="20" type="curve" smooth="yes"/>
      <point x="177" y="20"/>
      <point x="105" y="116"/>
      <point x="105" y="267" type="curve" smooth="yes"/>
      <point x="105" y="418"/>
      <point x="177" y="513"/>
      <point x="317" y="513" type="curve" smooth="yes" name="bow"/>
      <point x="372" y="513"/>
      <point x="425" y="492"/>
      <point x="466" y="459" type="curve"/>
    </contour>
  </outline>
</glyph>
<glyph name="o" format="1">
  <advance width="644"/>
  <unicode hex="006F"/>
  <outline>
    <contour>
      <point x="110" y="268" type="line" name=""/>
      <point x="110" y="122"/>
      <point x="177" y="20"/>
      <point x="315" y="20" type="curve" smooth="yes"/>
      <point x="451" y="20"/>
      <point x="519" y="120.408"/>
      <point x="519" y="266" type="curve" smooth="yes"/>
      <point x="519" y="412.407"/>
      <point x="449" y="513"/>
      <point x="311" y="513" type="curve" smooth="yes"/>
      <point x="177" y="513"/>
      <point x="110" y="414"/>
      <point x="110" y="268" type="curve" name=""/>
      <point x="88" y="268" type="line" name=""/>
      <point x="88" y="424"/>
      <point x="164" y="533"/>
      <point x="312" y="533" type="curve" smooth="yes" name="over_top"/>
      <point x="463" y="533"/>
      <point x="541" y="424.407"/>
      <point x="541" y="266" type="curve" smooth="yes"/>
      <point x="541" y="107.404"/>
      <point x="464" y="0"/>
      <point x="314" y="0" type="curve" smooth="yes" name="over_bottom"/>
      <point x="164" y="0"/>
      <point x="88" y="109"/>
      <point x="88" y="268" type="curve" name=""/>
    </contour>
  </outline>
</glyph>
<glyph name="z" format="1">
  <advance width="581"/>
  <unicode hex="007A"/>
  <outline>
    <contour>
      <point x="98" y="513" type="line" name="stem"/>
      <point x="476" y="513" type="line" name="stem"/>
      <point x="470" y="519" type="line" name="stem"/>
      <point x="465" y="524" type="line" name="stem"/>
      <point x="456" y="513" type="line" name="stem"/>
      <point x="94" y="20" type="line" name="stem"/>
      <point x="94" y="9" type="line" name="stem"/>
      <point x="94" y="0" type="line" name="stem"/>
      <point x="99" y="0" type="line" name="stem"/>
      <point x="525" y="0" type="line" name="stem"/>
      <point x="525" y="20" type="line" name="stem"/>
      <point x="99" y="20" type="line" name="stem"/>
      <point x="105" y="15" type="line" name="stem"/>
      <point x="111" y="9" type="line" name="stem"/>
      <point x="120" y="20" type="line" name="stem"/>
      <point x="483" y="513" type="line" name="stem"/>
      <point x="483" y="524" type="line" name="stem"/>
      <point x="483" y="533" type="line" name="stem"/>
      <point x="476" y="533" type="line" name="stem"/>
      <point x="98" y="533" type="line" name="stem"/>
    </contour>
    <contour>
      <point x="98" y="522" type="line"/>
      <point x="98" y="439" type="line" name="tlb"/>
      <point x="118" y="439" type="line" name="tlb"/>
      <point x="118" y="522" type="line"/>
    </contour>
    <contour>
      <point x="525" y="10" type="line"/>
      <point x="525" y="93" type="line" name="brt"/>
      <point x="505" y="93" type="line" name="brt"/>
      <point x="505" y="10" type="line"/>
    </contour>
  </outline>
</glyph>
<glyph name="bar" format="1">
  <advance width="290"/>
  <unicode hex="007C"/>
  <outline>
    <contour>
      <point x="151" y="-300" type="line"/>
      <point x="151" y="800" type="line" name="stem"/>
      <point x="129" y="800" type="line" name="stem"/>
      <point x="129" y="-300" type="line"/>
    </contour>
  </outline>
</glyph>
<glyph name="sterling" format="1">
  <advance width="505"/>
  <unicode hex="00A3"/>
  <outline>
    <contour>
      <point x="433" y="20" type="line"/>
      <point x="30" y="20" type="line"/>
      <point x="30" y="0" type="line"/>
      <point x="433" y="0" type="line"/>
    </contour>
    <contour>
      <point x="386" y="387" type="line"/>
      <point x="65" y="387" type="line"/>
      <point x="65" y="367" type="line"/>
      <point x="386" y="367" type="line"/>
    </contour>
    <contour>
      <point x="443" y="674" type="line"/>
      <point x="399" y="706"/>
      <point x="363" y="722"/>
      <point x="309" y="722" type="curve" smooth="yes"/>
      <point x="158.993" y="722"/>
      <point x="121.99" y="564.05"/>
      <point x="160" y="375" type="curve" smooth="yes"/>
      <point x="198.299" y="185.521"/>
      <point x="177" y="20"/>
      <point x="30" y="20" type="curve"/>
      <point x="30" y="0" type="line"/>
      <point x="197" y="0"/>
      <point x="222.102" y="175.484"/>
      <point x="182" y="379" type="curve" smooth="yes"/>
      <point x="148" y="553"/>
      <point x="179" y="703"/>
      <point x="308" y="703" type="curve" smooth="yes"/>
      <point x="358" y="703"/>
      <point x="391.697" y="688.235"/>
      <point x="432" y="657" type="curve"/>
    </contour>
  </outline>
</glyph>
<glyph name="brokenbar" format="1">
  <advance width="256"/>
  <unicode hex="00A6"/>
  <outline>
    <contour>
      <point x="151" y="-300" type="line" name="stem"/>
      <point x="151" y="72" type="line"/>
      <point x="129" y="72" type="line"/>
      <point x="129" y="-300" type="line" name="stem"/>
    </contour>
    <contour>
      <point x="151" y="428" type="line" name="stem2"/>
      <point x="151" y="800" type="line"/>
      <point x="129" y="800" type="line"/>
      <point x="129" y="428" type="line" name="stem2"/>
    </contour>
  </outline>
</glyph>
<glyph name="dieresis" format="1">
  <advance width="318"/>
  <unicode hex="00A8"/>
  <outline>
    <contour>
      <point x="114" y="670" type="line" name=""/>
      <point x="114" y="682"/>
      <point x="106" y="689"/>
      <point x="94" y="689" type="curve" name="dot2"/>
      <point x="83" y="689"/>
      <point x="76" y="681"/>
      <point x="76" y="670" type="curve" name=""/>
      <point x="114" y="670" type="line" name=""/>
      <point x="114" y="658"/>
      <point x="106" y="652"/>
      <point x="94" y="652" type="curve" name="dot2"/>
      <point x="83" y="652"/>
      <point x="76" y="659"/>
      <point x="76" y="670" type="curve" name=""/>
    </contour>
    <contour>
      <point x="235" y="670" type="line" name=""/>
      <point x="235" y="682"/>
      <point x="227" y="689"/>
      <point x="215" y="689" type="curve" name="dot"/>
      <point x="204" y="689"/>
      <point x="197" y="681"/>
      <point x="197" y="670" type="curve" name=""/>
      <point x="235" y="670" type="line" name=""/>
      <point x="235" y="658"/>
      <point x="227" y="652"/>
      <point x="215" y="652" type="curve" name="dot"/>
      <point x="204" y="652"/>
      <point x="197" y="659"/>
      <point x="197" y="670" type="curve" name=""/>
    </contour>
  </outline>
</glyph>
<glyph name="copyright" format="1">
  <advance width="706"/>
  <unicode hex="00A9"/>
  <outline>
    <contour>
      <point x="73" y="319" type="line"/>
      <point x="73" y="499"/>
      <point x="191" y="626"/>
      <point x="368" y="626" type="curve" smooth="yes"/>
      <point x="541" y="626"/>
      <point x="656" y="497"/>
      <point x="656" y="318" type="curve" smooth="yes"/>
      <point x="656" y="145"/>
      <point x="543" y="20"/>
      <point x="374" y="20" type="curve" smooth="yes"/>
      <point x="198" y="20"/>
      <point x="73" y="141"/>
      <point x="73" y="319" type="curve"/>
      <point x="51" y="319" type="line"/>
      <point x="51" y="130"/>
      <point x="183" y="0"/>
      <point x="373" y="0" type="curve" smooth="yes" name="over_bottom"/>
      <point x="556" y="0"/>
      <point x="678" y="133"/>
      <point x="678" y="319" type="curve" smooth="yes"/>
      <point x="678" y="509"/>
      <point x="554" y="646"/>
      <point x="368" y="646" type="curve" smooth="yes"/>
      <point x="179" y="646"/>
      <point x="51" y="511"/>
      <point x="51" y="319" type="curve"/>
    </contour>
    <contour>
      <point x="466" y="453" type="line" name=""/>
      <point x="466" y="381" type="line" name=""/>
      <point x="486" y="381" type="line" name=""/>
      <point x="486" y="464" type="line" name=""/>
    </contour>
    <contour>
      <point x="486" y="464" type="line" name=""/>
      <point x="449" y="487"/>
      <point x="418" y="495"/>
      <point x="374" y="495" type="curve" smooth="yes" name=""/>
      <point x="272" y="495"/>
      <point x="211" y="424"/>
      <point x="211" y="319" type="curve" smooth="yes" name=""/>
      <point x="211" y="217"/>
      <point x="265" y="146"/>
      <point x="362" y="146" type="curve" smooth="yes" name=""/>
      <point x="417" y="146"/>
      <point x="456" y="158"/>
      <point x="499" y="193" type="curve" name=""/>
      <point x="485" y="209" type="line" name=""/>
      <point x="447" y="177"/>
      <point x="412" y="166"/>
      <point x="363" y="166" type="curve" smooth="yes" name=""/>
      <point x="278" y="166"/>
      <point x="233" y="230"/>
      <point x="233" y="320" type="curve" smooth="yes" name=""/>
      <point x="233" y="412"/>
      <point x="284" y="475"/>
      <point x="373" y="475" type="curve" smooth="yes" name=""/>
      <point x="412" y="475"/>
      <point x="437" y="468"/>
      <point x="466" y="453" type="curve" name=""/>
    </contour>
  </outline>
</glyph>
<glyph name="guillemotleft" format="1">
  <advance width="432"/>
  <unicode hex="00AB"/>
  <outline>
    <contour>
      <point x="396" y="163" type="line"/>
      <point x="215" y="287" type="line"/>
      <point x="215" y="265" type="line"/>
      <point x="396" y="141" type="line"/>
    </contour>
    <contour>
      <point x="396" y="407" type="line"/>
      <point x="215" y="287" type="line"/>
      <point x="215" y="265" type="line"/>
      <point x="396" y="385" type="line"/>
    </contour>
    <contour>
      <point x="220" y="163" type="line"/>
      <point x="39" y="287" type="line"/>
      <point x="39" y="265" type="line"/>
      <point x="220" y="141" type="line"/>
    </contour>
    <contour>
      <point x="221" y="407" type="line"/>
      <point x="39" y="287" type="line"/>
      <point x="39" y="265" type="line"/>
      <point x="221" y="385" type="line"/>
    </contour>
  </outline>
</glyph>
<glyph name="registered" format="1">
  <advance width="704"/>
  <unicode hex="00AE"/>
  <outline>
    <contour>
      <point x="73" y="319" type="line"/>
      <point x="73" y="499"/>
      <point x="191" y="626"/>
      <point x="368" y="626" type="curve" smooth="yes"/>
      <point x="541" y="626"/>
      <point x="656" y="497"/>
      <point x="656" y="318" type="curve" smooth="yes"/>
      <point x="656" y="145"/>
      <point x="543" y="20"/>
      <point x="374" y="20" type="curve" smooth="yes"/>
      <point x="198" y="20"/>
      <point x="73" y="141"/>
      <point x="73" y="319" type="curve"/>
      <point x="51" y="319" type="line"/>
      <point x="51" y="130"/>
      <point x="183" y="0"/>
      <point x="373" y="0" type="curve" smooth="yes" name="over_bottom"/>
      <point x="556" y="0"/>
      <point x="678" y="133"/>
      <point x="678" y="319" type="curve" smooth="yes"/>
      <point x="678" y="509"/>
      <point x="554" y="646"/>
      <point x="368" y="646" type="curve" smooth="yes"/>
      <point x="179" y="646"/>
      <point x="51" y="511"/>
      <point x="51" y="319" type="curve"/>
    </contour>
    <contour>
      <point x="466" y="149" type="line" name=""/>
      <point x="552" y="149" type="line" name=""/>
      <point x="552" y="169" type="line" name=""/>
      <point x="482" y="169" type="line" name=""/>
    </contour>
    <contour>
      <point x="303" y="490" type="line" name=""/>
      <point x="199" y="490" type="line" name=""/>
      <point x="199" y="470" type="line" name=""/>
      <point x="281" y="470" type="line" name=""/>
    </contour>
    <contour>
      <point x="303" y="169" type="line" name=""/>
      <point x="199" y="169" type="line" name=""/>
      <point x="199" y="149" type="line" name=""/>
      <point x="281" y="149" type="line" name=""/>
    </contour>
    <contour>
      <point x="281" y="149" type="line" name=""/>
      <point x="375" y="149" type="line" name=""/>
      <point x="375" y="169" type="line" name=""/>
      <point x="303" y="169" type="line" name=""/>
    </contour>
    <contour>
      <point x="378" y="309" type="line" name=""/>
      <point x="466" y="149" type="line" name=""/>
      <point x="482" y="169" type="line" name=""/>
      <point x="405" y="309" type="line" name=""/>
    </contour>
    <contour>
      <point x="303" y="169" type="line" name=""/>
      <point x="303" y="490" type="line" name=""/>
      <point x="281" y="470" type="line" name=""/>
      <point x="281" y="149" type="line" name=""/>
    </contour>
    <contour>
      <point x="294" y="296" type="line" name=""/>
      <point x="357" y="296" type="line" smooth="yes" name=""/>
      <point x="425" y="296"/>
      <point x="471" y="325"/>
      <point x="471" y="392" type="curve" smooth="yes" name=""/>
      <point x="471" y="454"/>
      <point x="428" y="490"/>
      <point x="365" y="490" type="curve" smooth="yes" name=""/>
      <point x="303" y="490" type="line" name=""/>
      <point x="281" y="470" type="line" name=""/>
      <point x="361" y="470" type="line" smooth="yes" name=""/>
      <point x="413" y="470"/>
      <point x="449" y="441"/>
      <point x="449" y="390" type="curve" smooth="yes" name=""/>
      <point x="449" y="338"/>
      <point x="413" y="316"/>
      <point x="360" y="316" type="curve" smooth="yes" name=""/>
      <point x="294" y="316" type="line" name=""/>
    </contour>
  </outline>
</glyph>
<glyph name="macron" format="1">
  <advance width="286"/>
  <unicode hex="00AF"/>
  <outline>
    <contour>
      <point x="256" y="680" type="line"/>
      <point x="31" y="680" type="line"/>
      <point x="31" y="660" type="line"/>
      <point x="256" y="660" type="line"/>
    </contour>
  </outline>
</glyph>
<glyph name="plusminus" format="1">
  <advance width="691"/>
  <unicode hex="00B1"/>
  <outline>
    <contour>
      <point x="628" y="423" type="line"/>
      <point x="628" y="423"/>
      <point x="47" y="423"/>
      <point x="47" y="423" type="curve"/>
      <point x="47" y="401" type="line"/>
      <point x="47" y="401"/>
      <point x="628" y="401"/>
      <point x="628" y="401" type="curve"/>
    </contour>
    <contour>
      <point x="332" y="678" type="line"/>
      <point x="332" y="678"/>
      <point x="332" y="108"/>
      <point x="332" y="108" type="curve"/>
      <point x="354" y="108" type="line"/>
      <point x="354" y="108"/>
      <point x="354" y="678"/>
      <point x="354" y="678" type="curve"/>
    </contour>
    <contour>
      <point x="626" y="9" type="line"/>
      <point x="47" y="9" type="line"/>
      <point x="47" y="-13" type="line"/>
      <point x="626" y="-13" type="line"/>
    </contour>
  </outline>
</glyph>
<glyph name="acute" format="1">
  <advance width="223"/>
  <unicode hex="00B4"/>
  <outline>
    <contour>
      <point x="46" y="591" type="line"/>
      <point x="211" y="757" type="line" name="stem"/>
      <point x="181" y="757" type="line" name="stem"/>
      <point x="16" y="591" type="line"/>
    </contour>
  </outline>
</glyph>
<glyph name="paragraph" format="1">
  <advance width="529"/>
  <unicode hex="00B6"/>
  <outline>
    <contour>
      <point x="494" y="722" type="line" name="tll"/>
      <point x="391" y="722" type="line"/>
      <point x="391" y="702" type="line"/>
      <point x="494" y="702" type="line" name="tll"/>
    </contour>
    <contour>
      <point x="494" y="20" type="line" name="bll"/>
      <point x="391" y="20" type="line"/>
      <point x="391" y="0" type="line"/>
      <point x="494" y="0" type="line" name="bll"/>
    </contour>
    <contour>
      <point x="288" y="0" type="line" name="blr"/>
      <point x="391" y="0" type="line"/>
      <point x="391" y="20" type="line"/>
      <point x="288" y="20" type="line" name="blr"/>
    </contour>
    <contour>
      <point x="388" y="722" type="line"/>
      <point x="260" y="722" type="line" smooth="yes"/>
      <point x="117" y="722"/>
      <point x="18" y="634"/>
      <point x="18" y="494" type="curve" smooth="yes"/>
      <point x="18" y="365"/>
      <point x="105" y="283"/>
      <point x="236" y="281" type="curve" smooth="yes"/>
      <point x="294" y="281"/>
      <point x="342" y="300"/>
      <point x="393" y="327" type="curve"/>
      <point x="386" y="345" type="line"/>
      <point x="334" y="318"/>
      <point x="293" y="301"/>
      <point x="234" y="301" type="curve" smooth="yes"/>
      <point x="118" y="301"/>
      <point x="40" y="377"/>
      <point x="40" y="493" type="curve" smooth="yes"/>
      <point x="40" y="622"/>
      <point x="131" y="702"/>
      <point x="263" y="702" type="curve" smooth="yes"/>
      <point x="388" y="702" type="line"/>
    </contour>
    <contour>
      <point x="403" y="0" type="line" name="stem"/>
      <point x="403" y="722" type="line" name="stem"/>
      <point x="381" y="722" type="line" name="stem"/>
      <point x="381" y="0" type="line" name="stem"/>
    </contour>
  </outline>
</glyph>
<glyph name="onesuperior" format="1">
  <advance width="280"/>
  <unicode hex="00B9"/>
  <outline>
    <contour>
      <point x="173" y="851" type="line"/>
      <point x="173" y="441" type="line"/>
      <point x="195" y="441" type="line"/>
      <point x="195" y="851" type="line"/>
    </contour>
    <contour>
      <point x="173" y="851" type="line"/>
      <point x="43" y="746" type="line"/>
      <point x="57" y="729" type="line"/>
      <point x="188" y="838" type="line"/>
    </contour>
  </outline>
</glyph>
<glyph name="guillemotright" format="1">
  <advance width="441"/>
  <unicode hex="00BB"/>
  <outline>
    <contour>
      <point x="38" y="385" type="line"/>
      <point x="219" y="261" type="line"/>
      <point x="219" y="283" type="line"/>
      <point x="38" y="407" type="line"/>
    </contour>
    <contour>
      <point x="38" y="141" type="line"/>
      <point x="219" y="261" type="line"/>
      <point x="219" y="283" type="line"/>
      <point x="38" y="163" type="line"/>
    </contour>
    <contour>
      <point x="214" y="385" type="line"/>
      <point x="395" y="261" type="line"/>
      <point x="395" y="283" type="line"/>
      <point x="214" y="407" type="line"/>
    </contour>
    <contour>
      <point x="213" y="141" type="line"/>
      <point x="395" y="261" type="line"/>
      <point x="395" y="283" type="line"/>
      <point x="213" y="163" type="line"/>
    </contour>
  </outline>
</glyph>
<glyph name="onequarter" format="1">
  <advance width="868"/>
  <unicode hex="00BC"/>
  <outline>
    <contour>
      <point x="823" y="108" type="line"/>
      <point x="462" y="108" type="line"/>
      <point x="476" y="88" type="line"/>
      <point x="823" y="88" type="line"/>
    </contour>
    <contour>
      <point x="476" y="88" type="line"/>
      <point x="726" y="397" type="line"/>
      <point x="704" y="404" type="line"/>
      <point x="462" y="108" type="line"/>
    </contour>
    <contour>
      <point x="726" y="-30" type="line" name="stem"/>
      <point x="726" y="397" type="line"/>
      <point x="704" y="404" type="line"/>
      <point x="704" y="404"/>
      <point x="704" y="-30"/>
      <point x="704" y="-30" type="curve" name="stem"/>
    </contour>
    <contour>
      <point x="715" y="-10" type="line"/>
      <point x="612" y="-10" type="line" name="bll"/>
      <point x="612" y="-30" type="line" name="bll"/>
      <point x="715" y="-30" type="line"/>
    </contour>
    <contour>
      <point x="715" y="-30" type="line"/>
      <point x="818" y="-30" type="line" name="brr"/>
      <point x="818" y="-10" type="line" name="brr"/>
      <point x="715" y="-10" type="line"/>
    </contour>
    <contour>
      <point x="243" y="-94" type="line"/>
      <point x="669" y="758" type="line"/>
      <point x="644" y="758" type="line"/>
      <point x="218" y="-94" type="line"/>
    </contour>
    <contour>
      <point x="208" y="231" type="line" name=""/>
      <point x="330" y="231" type="line" name=""/>
      <point x="330" y="251" type="line" name=""/>
      <point x="230" y="251" type="line" name=""/>
    </contour>
    <contour>
      <point x="230" y="251" type="line" name=""/>
      <point x="104" y="251" type="line" name=""/>
      <point x="104" y="231" type="line" name=""/>
      <point x="208" y="231" type="line" name=""/>
    </contour>
    <contour>
      <point x="92" y="513" type="line"/>
      <point x="230" y="622" type="line"/>
      <point x="208" y="632" type="line"/>
      <point x="78" y="530" type="line"/>
    </contour>
    <contour>
      <point x="230" y="251" type="line" name=""/>
      <point x="230" y="622" type="line"/>
      <point x="208" y="632" type="line"/>
      <point x="208" y="231" type="line" name=""/>
    </contour>
  </outline>
</glyph>
<glyph name="onehalf" format="1">
  <advance width="868"/>
  <unicode hex="00BD"/>
  <outline>
    <contour>
      <point x="243" y="-94" type="line"/>
      <point x="669" y="758" type="line"/>
      <point x="644" y="758" type="line"/>
      <point x="218" y="-94" type="line"/>
    </contour>
    <contour>
      <point x="822" y="2" type="line" name=""/>
      <point x="822" y="122" type="line" name=""/>
      <point x="802" y="122" type="line" name=""/>
      <point x="802" y="22" type="line" name=""/>
    </contour>
    <contour>
      <point x="517" y="2" type="line"/>
      <point x="822" y="2" type="line" name=""/>
      <point x="802" y="22" type="line" name=""/>
      <point x="507" y="22" type="line"/>
    </contour>
    <contour>
      <point x="559" y="320" type="line"/>
      <point x="585" y="368"/>
      <point x="619" y="396"/>
      <point x="674" y="396" type="curve" smooth="yes" name=""/>
      <point x="738" y="396"/>
      <point x="781" y="359"/>
      <point x="781" y="297" type="curve" smooth="yes"/>
      <point x="781" y="241"/>
      <point x="745" y="213"/>
      <point x="703" y="176" type="curve"/>
      <point x="507" y="22" type="line"/>
      <point x="517" y="2" type="line"/>
      <point x="717" y="160" type="line"/>
      <point x="764" y="202"/>
      <point x="802" y="235"/>
      <point x="802" y="298" type="curve" smooth="yes"/>
      <point x="802" y="372"/>
      <point x="751" y="416"/>
      <point x="675" y="416" type="curve" smooth="yes" name=""/>
      <point x="612" y="416"/>
      <point x="569" y="389"/>
      <point x="542" y="332" type="curve"/>
    </contour>
    <contour>
      <point x="208" y="231" type="line" name=""/>
      <point x="330" y="231" type="line" name=""/>
      <point x="330" y="251" type="line" name=""/>
      <point x="230" y="251" type="line" name=""/>
    </contour>
    <contour>
      <point x="230" y="251" type="line" name=""/>
      <point x="104" y="251" type="line" name=""/>
      <point x="104" y="231" type="line" name=""/>
      <point x="208" y="231" type="line" name=""/>
    </contour>
    <contour>
      <point x="92" y="513" type="line"/>
      <point x="230" y="622" type="line"/>
      <point x="208" y="632" type="line"/>
      <point x="78" y="530" type="line"/>
    </contour>
    <contour>
      <point x="230" y="251" type="line" name=""/>
      <point x="230" y="622" type="line"/>
      <point x="208" y="632" type="line"/>
      <point x="208" y="231" type="line" name=""/>
    </contour>
  </outline>
</glyph>
<glyph name="divide" format="1">
  <advance width="533"/>
  <unicode hex="00F7"/>
  <outline>
    <contour>
      <point x="495" y="265" type="line"/>
      <point x="40" y="265" type="line"/>
      <point x="40" y="243" type="line"/>
      <point x="495" y="243" type="line"/>
    </contour>
    <component base="period" xOffset="118" yOffset="395"/>
    <component base="period" xOffset="118" yOffset="62"/>
  </outline>
</glyph>
<glyph name="dotaccent" format="1">
  <advance width="140"/>
  <unicode hex="02D9"/>
  <outline>
    <contour>
      <point x="99" y="670" type="line" name=""/>
      <point x="99" y="682"/>
      <point x="91" y="689"/>
      <point x="79" y="689" type="curve" name="dot"/>
      <point x="68" y="689"/>
      <point x="61" y="681"/>
      <point x="61" y="670" type="curve" name=""/>
      <point x="99" y="670" type="line" name=""/>
      <point x="99" y="658"/>
      <point x="91" y="652"/>
      <point x="79" y="652" type="curve" name="dot"/>
      <point x="68" y="652"/>
      <point x="61" y="659"/>
      <point x="61" y="670" type="curve" name=""/>
    </contour>
  </outline>
</glyph>
<glyph name="hungarumlaut" format="1">
  <advance width="290"/>
  <unicode hex="02DD"/>
  <outline>
    <contour>
      <point x="263" y="690" type="line"/>
      <point x="173" y="556" type="line"/>
      <point x="197" y="556" type="line"/>
      <point x="294" y="690" type="line"/>
    </contour>
    <contour>
      <point x="90" y="690" type="line"/>
      <point x="0" y="556" type="line"/>
      <point x="24" y="556" type="line"/>
      <point x="121" y="690" type="line"/>
    </contour>
  </outline>
</glyph>
<glyph name="circumflex" format="1">
  <advance width="384"/>
  <unicode hex="0302"/>
  <outline>
    <contour>
      <point x="38" y="591" type="line" name="stem"/>
      <point x="203" y="757" type="line"/>
      <point x="173" y="757" type="line"/>
      <point x="8" y="591" type="line" name="stem"/>
    </contour>
    <contour>
      <point x="368" y="591" type="line" name="stem2"/>
      <point x="203" y="757" type="line"/>
      <point x="173" y="757" type="line"/>
      <point x="338" y="591" type="line" name="stem2"/>
    </contour>
  </outline>
</glyph>
<glyph name="breve" format="1">
  <advance width="302"/>
  <unicode hex="0306"/>
  <outline>
    <contour>
      <point x="266" y="743" type="line"/>
      <point x="266" y="677"/>
      <point x="219" y="640"/>
      <point x="150" y="640" type="curve" smooth="yes"/>
      <point x="83" y="640"/>
      <point x="39" y="679"/>
      <point x="39" y="744" type="curve"/>
      <point x="18" y="744" type="line"/>
      <point x="18" y="665"/>
      <point x="68" y="620"/>
      <point x="148" y="620" type="curve" smooth="yes"/>
      <point x="232" y="620"/>
      <point x="287" y="663"/>
      <point x="287" y="743" type="curve"/>
    </contour>
  </outline>
</glyph>
<glyph name="caron" format="1">
  <advance width="381"/>
  <unicode hex="030C"/>
  <outline>
    <contour>
      <point x="338" y="757" type="line" name="stem2"/>
      <point x="173" y="591" type="line"/>
      <point x="203" y="591" type="line"/>
      <point x="368" y="757" type="line" name="stem2"/>
    </contour>
    <contour>
      <point x="8" y="757" type="line" name="stem"/>
      <point x="173" y="591" type="line"/>
      <point x="203" y="591" type="line"/>
      <point x="38" y="757" type="line" name="stem"/>
    </contour>
  </outline>
</glyph>
<glyph name="quoteleft" format="1">
  <advance width="162"/>
  <unicode hex="2018"/>
  <outline>
    <contour>
      <point x="127" y="748" type="line"/>
      <point x="19" y="567" type="line"/>
      <point x="49" y="567" type="line"/>
      <point x="153" y="748" type="line"/>
    </contour>
  </outline>
</glyph>
<glyph name="quoteright" format="1">
  <advance width="162"/>
  <unicode hex="2019"/>
  <outline>
    <contour>
      <point x="45" y="567" type="line"/>
      <point x="153" y="748" type="line"/>
      <point x="123" y="748" type="line"/>
      <point x="19" y="567" type="line"/>
    </contour>
  </outline>
</glyph>
<glyph name="quotesinglbase" format="1">
  <advance width="237"/>
  <unicode hex="201A"/>
  <outline>
    <contour>
      <point x="78" y="-99" type="line"/>
      <point x="186" y="82" type="line"/>
      <point x="156" y="82" type="line"/>
      <point x="52" y="-99" type="line"/>
    </contour>
  </outline>
</glyph>
<glyph name="quotedblleft" format="1">
  <advance width="318"/>
  <unicode hex="201C"/>
  <outline>
    <contour>
      <point x="289" y="748" type="line"/>
      <point x="181" y="567" type="line"/>
      <point x="211" y="567" type="line"/>
      <point x="315" y="748" type="line"/>
    </contour>
    <contour>
      <point x="158" y="748" type="line"/>
      <point x="50" y="567" type="line"/>
      <point x="80" y="567" type="line"/>
      <point x="184" y="748" type="line"/>
    </contour>
  </outline>
</glyph>
<glyph name="quotedblright" format="1">
  <advance width="351"/>
  <unicode hex="201D"/>
  <outline>
    <contour>
      <point x="207" y="567" type="line"/>
      <point x="315" y="748" type="line"/>
      <point x="285" y="748" type="line"/>
      <point x="181" y="567" type="line"/>
    </contour>
    <contour>
      <point x="76" y="567" type="line"/>
      <point x="184" y="748" type="line"/>
      <point x="154" y="748" type="line"/>
      <point x="50" y="567" type="line"/>
    </contour>
  </outline>
</glyph>
<glyph name="quotedblbase" format="1">
  <advance width="363"/>
  <unicode hex="201E"/>
  <outline>
    <contour>
      <point x="209" y="-99" type="line"/>
      <point x="317" y="82" type="line"/>
      <point x="287" y="82" type="line"/>
      <point x="183" y="-99" type="line"/>
    </contour>
    <contour>
      <point x="78" y="-99" type="line"/>
      <point x="186" y="82" type="line"/>
      <point x="156" y="82" type="line"/>
      <point x="52" y="-99" type="line"/>
    </contour>
  </outline>
</glyph>
<glyph name="perthousand" format="1">
  <advance width="1219"/>
  <unicode hex="2030"/>
  <outline>
    <contour>
      <point x="878" y="177" type="line"/>
      <point x="878" y="272"/>
      <point x="925" y="344"/>
      <point x="1014" y="344" type="curve" smooth="yes" name=""/>
      <point x="1102" y="345"/>
      <point x="1150" y="271"/>
      <point x="1150" y="178" type="curve"/>
      <point x="1150" y="84"/>
      <point x="1103" y="9"/>
      <point x="1016" y="9" type="curve" smooth="yes"/>
      <point x="927" y="9"/>
      <point x="878" y="83"/>
      <point x="878" y="177" type="curve"/>
      <point x="857" y="177" type="line"/>
      <point x="857" y="70"/>
      <point x="911" y="-11"/>
      <point x="1015" y="-11" type="curve" smooth="yes"/>
      <point x="1116" y="-11"/>
      <point x="1172" y="71"/>
      <point x="1172" y="179" type="curve" smooth="yes"/>
      <point x="1172" y="284"/>
      <point x="1114" y="364"/>
      <point x="1015" y="364" type="curve" smooth="yes" name=""/>
      <point x="912" y="364"/>
      <point x="857" y="285"/>
      <point x="857" y="177" type="curve"/>
    </contour>
    <component base="percent"/>
  </outline>
</glyph>
<glyph name="guilsinglleft" format="1">
  <advance width="257"/>
  <unicode hex="2039"/>
  <outline>
    <contour>
      <point x="211" y="407" type="line"/>
      <point x="40" y="287" type="line"/>
      <point x="40" y="265" type="line"/>
      <point x="211" y="385" type="line"/>
    </contour>
    <contour>
      <point x="211" y="167" type="line"/>
      <point x="40" y="287" type="line"/>
      <point x="40" y="265" type="line"/>
      <point x="211" y="145" type="line"/>
    </contour>
  </outline>
</glyph>
<glyph name="guilsinglright" format="1">
  <advance width="257"/>
  <unicode hex="203A"/>
  <outline>
    <contour>
      <point x="220" y="283" type="line"/>
      <point x="39" y="407" type="line"/>
      <point x="39" y="385" type="line"/>
      <point x="220" y="261" type="line"/>
    </contour>
    <contour>
      <point x="220" y="283" type="line"/>
      <point x="49" y="163" type="line"/>
      <point x="49" y="141" type="line"/>
      <point x="220" y="261" type="line"/>
    </contour>
  </outline>
</glyph>
<glyph name="fraction" format="1">
  <advance width="590"/>
  <unicode hex="2044"/>
  <outline>
    <contour>
      <point x="105" y="0" type="line"/>
      <point x="531" y="852" type="line"/>
      <point x="506" y="852" type="line"/>
      <point x="80" y="0" type="line"/>
    </contour>
  </outline>
</glyph>
<glyph name="trademark" format="1">
  <advance width="867"/>
  <unicode hex="2122"/>
  <outline>
    <contour>
      <point x="26" y="681" type="line" name=""/>
      <point x="26" y="585" type="line" name=""/>
      <point x="46" y="585" type="line" name=""/>
      <point x="46" y="661" type="line" name=""/>
    </contour>
    <contour>
      <point x="336" y="661" type="line" name=""/>
      <point x="336" y="585" type="line" name=""/>
      <point x="356" y="585" type="line" name=""/>
      <point x="356" y="681" type="line" name=""/>
    </contour>
    <contour>
      <point x="185" y="277" type="line" name=""/>
      <point x="288" y="277" type="line" name=""/>
      <point x="288" y="297" type="line" name=""/>
      <point x="207" y="297" type="line" name=""/>
    </contour>
    <contour>
      <point x="207" y="297" type="line" name=""/>
      <point x="102" y="297" type="line" name=""/>
      <point x="102" y="277" type="line" name=""/>
      <point x="185" y="277" type="line" name=""/>
    </contour>
    <contour>
      <point x="207" y="297" type="line" name=""/>
      <point x="207" y="681" type="line" name=""/>
      <point x="185" y="661" type="line" name=""/>
      <point x="185" y="277" type="line" name=""/>
    </contour>
    <contour>
      <point x="46" y="661" type="line" name=""/>
      <point x="336" y="661" type="line" name=""/>
      <point x="356" y="681" type="line" name=""/>
      <point x="26" y="681" type="line" name=""/>
    </contour>
    <contour>
      <point x="744" y="277" type="line" name=""/>
      <point x="849" y="277" type="line" name=""/>
      <point x="849" y="297" type="line" name=""/>
      <point x="763" y="297" type="line" name=""/>
    </contour>
    <contour>
      <point x="763" y="297" type="line" name=""/>
      <point x="663" y="297" type="line" name=""/>
      <point x="663" y="277" type="line" name=""/>
      <point x="744" y="277" type="line" name=""/>
    </contour>
    <contour>
      <point x="433" y="297" type="line" name=""/>
      <point x="349" y="297" type="line" name=""/>
      <point x="349" y="277" type="line" name=""/>
      <point x="452" y="277" type="line" name=""/>
    </contour>
    <contour>
      <point x="511" y="681" type="line" name=""/>
      <point x="398" y="681" type="line" name=""/>
      <point x="398" y="661" type="line" name=""/>
      <point x="495" y="661" type="line" name=""/>
    </contour>
    <contour>
      <point x="697" y="661" type="line" name=""/>
      <point x="800" y="661" type="line" name=""/>
      <point x="800" y="681" type="line" name=""/>
      <point x="682" y="681" type="line" name=""/>
    </contour>
    <contour>
      <point x="452" y="277" type="line" name=""/>
      <point x="535" y="277" type="line" name=""/>
      <point x="535" y="297" type="line" name=""/>
      <point x="433" y="297" type="line" name=""/>
    </contour>
    <contour>
      <point x="763" y="297" type="line" name=""/>
      <point x="707" y="670" type="line" name=""/>
      <point x="687" y="670" type="line" name=""/>
      <point x="744" y="277" type="line" name=""/>
    </contour>
    <contour>
      <point x="452" y="277" type="line" name=""/>
      <point x="506" y="670" type="line" name=""/>
      <point x="486" y="670" type="line" name=""/>
      <point x="433" y="297" type="line" name=""/>
    </contour>
    <contour>
      <point x="604" y="277" type="line" name=""/>
      <point x="511" y="681" type="line" name=""/>
      <point x="495" y="661" type="line" name=""/>
      <point x="582" y="277" type="line" name=""/>
    </contour>
    <contour>
      <point x="613" y="277" type="line" name=""/>
      <point x="697" y="661" type="line" name=""/>
      <point x="682" y="681" type="line" name=""/>
      <point x="590" y="277" type="line" name=""/>
    </contour>
  </outline>
</glyph>
<glyph name="estimated" format="1">
  <advance width="703"/>
  <unicode hex="212E"/>
  <outline>
    <contour>
      <point x="615" y="392" type="line"/>
      <point x="107" y="392" type="line"/>
      <point x="107" y="372" type="line"/>
      <point x="637" y="372" type="line"/>
    </contour>
    <contour>
      <point x="637" y="372" type="line"/>
      <point x="637" y="604"/>
      <point x="554" y="722"/>
      <point x="372" y="722" type="curve" smooth="yes" name="over_top"/>
      <point x="177" y="722"/>
      <point x="94" y="590"/>
      <point x="94" y="382" type="curve" smooth="yes"/>
      <point x="94" y="149"/>
      <point x="188" y="0"/>
      <point x="406" y="0" type="curve" smooth="yes"/>
      <point x="508" y="0"/>
      <point x="564" y="27"/>
      <point x="636" y="100" type="curve"/>
      <point x="620" y="115" type="line"/>
      <point x="552" y="48"/>
      <point x="501" y="20"/>
      <point x="406" y="20" type="curve" smooth="yes"/>
      <point x="201" y="20"/>
      <point x="116" y="162"/>
      <point x="116" y="382" type="curve"/>
      <point x="116" y="576"/>
      <point x="190" y="702"/>
      <point x="371" y="702" type="curve" smooth="yes" name=""/>
      <point x="539" y="702"/>
      <point x="615" y="592"/>
      <point x="615" y="392" type="curve"/>
    </contour>
  </outline>
</glyph>
<glyph name="summation" format="1">
  <advance width="557"/>
  <unicode hex="2211"/>
  <outline>
    <contour>
      <point x="441" y="702" type="line" name=""/>
      <point x="441" y="608" type="line" name=""/>
      <point x="461" y="608" type="line" name=""/>
      <point x="461" y="722" type="line" name=""/>
    </contour>
    <contour>
      <point x="461" y="0" type="line" name=""/>
      <point x="461" y="115" type="line" name=""/>
      <point x="441" y="115" type="line" name=""/>
      <point x="441" y="20" type="line" name=""/>
    </contour>
    <contour>
      <point x="461" y="722" type="line" name=""/>
      <point x="75" y="722" type="line" name=""/>
      <point x="68" y="702" type="line" name=""/>
      <point x="441" y="702" type="line" name=""/>
    </contour>
    <contour>
      <point x="81" y="0" type="line" name=""/>
      <point x="461" y="0" type="line" name=""/>
      <point x="441" y="20" type="line" name=""/>
      <point x="68" y="20" type="line" name=""/>
    </contour>
    <contour>
      <point x="401" y="400" type="line" name=""/>
      <point x="68" y="20" type="line" name=""/>
      <point x="81" y="0" type="line" name=""/>
      <point x="401" y="369" type="line" name=""/>
    </contour>
    <contour>
      <point x="401" y="400" type="line" name=""/>
      <point x="75" y="722" type="line" name=""/>
      <point x="68" y="702" type="line" name=""/>
      <point x="401" y="369" type="line" name=""/>
    </contour>
  </outline>
</glyph>
<glyph name="minus" format="1">
  <advance width="473"/>
  <unicode hex="2212"/>
  <outline>
    <contour>
      <point x="437" y="335" type="line"/>
      <point x="46" y="335" type="line"/>
      <point x="46" y="313" type="line"/>
      <point x="437" y="313" type="line"/>
    </contour>
  </outline>
</glyph>
<glyph name="notequal" format="1">
  <advance width="727"/>
  <unicode hex="2260"/>
  <outline>
    <contour>
      <point x="202" y="0" type="line"/>
      <point x="532" y="658" type="line"/>
      <point x="510" y="658" type="line"/>
      <point x="180" y="0" type="line"/>
    </contour>
    <contour>
      <point x="667" y="228" type="line"/>
      <point x="38" y="228" type="line"/>
      <point x="38" y="207" type="line"/>
      <point x="667" y="207" type="line"/>
    </contour>
    <contour>
      <point x="667" y="450" type="line"/>
      <point x="38" y="450" type="line"/>
      <point x="38" y="429" type="line"/>
      <point x="667" y="429" type="line"/>
    </contour>
  </outline>
</glyph>
<glyph name="lessequal" format="1">
  <advance width="691"/>
  <unicode hex="2264"/>
  <outline>
    <contour>
      <point x="656" y="676" type="line"/>
      <point x="37" y="412" type="line"/>
      <point x="37" y="390" type="line"/>
      <point x="656" y="654" type="line"/>
    </contour>
    <contour>
      <point x="656" y="148" type="line"/>
      <point x="37" y="412" type="line"/>
      <point x="37" y="390" type="line"/>
      <point x="656" y="126" type="line"/>
    </contour>
    <contour>
      <point x="37" y="0" type="line"/>
      <point x="656" y="0" type="line"/>
      <point x="656" y="21" type="line"/>
      <point x="37" y="21" type="line"/>
    </contour>
  </outline>
</glyph>
<glyph name="greaterequal" format="1">
  <advance width="691"/>
  <unicode hex="2265"/>
  <outline>
    <contour>
      <point x="656" y="412" type="line"/>
      <point x="47" y="142" type="line"/>
      <point x="47" y="120" type="line"/>
      <point x="656" y="390" type="line"/>
    </contour>
    <contour>
      <point x="37" y="654" type="line"/>
      <point x="656" y="390" type="line"/>
      <point x="656" y="412" type="line"/>
      <point x="37" y="676" type="line"/>
    </contour>
    <contour>
      <point x="640" y="9" type="line"/>
      <point x="47" y="9" type="line"/>
      <point x="47" y="-13" type="line"/>
      <point x="640" y="-13" type="line"/>
    </contour>
  </outline>
</glyph>
<glyph name="fi" format="1">
  <advance width="613"/>
  <unicode hex="FB01"/>
  <outline>
    <contour>
      <point x="504" y="0" type="line" name="stem"/>
      <point x="504" y="533" type="line"/>
      <point x="482" y="513" type="line"/>
      <point x="482" y="0" type="line" name="stem"/>
    </contour>
    <contour>
      <point x="504" y="684" type="line"/>
      <point x="504" y="784" type="line"/>
      <point x="482" y="769" type="line"/>
      <point x="482" y="684" type="line"/>
    </contour>
    <contour>
      <point x="265" y="0" type="line" name="stem2"/>
      <point x="265" y="594" type="line"/>
      <point x="265" y="700"/>
      <point x="315" y="780"/>
      <point x="414" y="780" type="curve" smooth="yes"/>
      <point x="439" y="780"/>
      <point x="458" y="777"/>
      <point x="482" y="769" type="curve"/>
      <point x="504" y="784" type="line"/>
      <point x="472" y="795"/>
      <point x="447" y="800"/>
      <point x="413" y="800" type="curve" smooth="yes"/>
      <point x="302" y="800"/>
      <point x="242" y="712"/>
      <point x="243" y="594" type="curve"/>
      <point x="243" y="594"/>
      <point x="243" y="0"/>
      <point x="243" y="0" type="curve" name="stem2"/>
    </contour>
    <contour>
      <point x="69" y="513" type="line"/>
      <point x="69" y="513"/>
      <point x="482" y="513"/>
      <point x="482" y="513" type="curve"/>
      <point x="504" y="533" type="line"/>
      <point x="504" y="533"/>
      <point x="69" y="533"/>
      <point x="69" y="533" type="curve"/>
    </contour>
  </outline>
</glyph>
<glyph name="asciicircum" format="1">
  <advance width="476"/>
  <outline>
    <contour>
      <point x="77" y="466" type="line"/>
      <point x="251" y="811" type="line"/>
      <point x="229" y="811" type="line"/>
      <point x="55" y="466" type="line"/>
    </contour>
    <contour>
      <point x="421" y="476" type="line"/>
      <point x="251" y="811" type="line"/>
      <point x="229" y="811" type="line"/>
      <point x="399" y="476" type="line"/>
    </contour>
  </outline>
</glyph>
<glyph name="omegamath" format="1">
  <advance width="800"/>
  <outline>
    <contour>
      <point x="260" y="20" type="line"/>
      <point x="157" y="110"/>
      <point x="115" y="209"/>
      <point x="115" y="345" type="curve"/>
      <point x="93" y="345" type="line"/>
      <point x="93" y="200"/>
      <point x="138" y="95"/>
      <point x="248" y="0" type="curve"/>
    </contour>
    <contour>
      <point x="115" y="345" type="line"/>
      <point x="115" y="548"/>
      <point x="212" y="702"/>
      <point x="401" y="702" type="curve" smooth="yes" name=""/>
      <point x="591" y="702"/>
      <point x="691" y="551"/>
      <point x="691" y="348" type="curve"/>
      <point x="691" y="209"/>
      <point x="649" y="106"/>
      <point x="540" y="20" type="curve"/>
      <point x="553" y="0" type="line"/>
      <point x="670" y="89"/>
      <point x="713" y="200"/>
      <point x="713" y="348" type="curve" smooth="yes"/>
      <point x="713" y="563"/>
      <point x="605" y="722"/>
      <point x="403" y="722" type="curve" smooth="yes" name="over_top"/>
      <point x="200" y="722"/>
      <point x="93" y="561"/>
      <point x="93" y="345" type="curve"/>
    </contour>
    <contour>
      <point x="260" y="20" type="line"/>
      <point x="92" y="20" type="line" name="bll"/>
      <point x="92" y="0" type="line" name="bll"/>
      <point x="248" y="0" type="line"/>
    </contour>
    <contour>
      <point x="553" y="0" type="line"/>
      <point x="712" y="0" type="line" name="blr"/>
      <point x="712" y="20" type="line" name="blr"/>
      <point x="540" y="20" type="line"/>
    </contour>
  </outline>
</glyph>
